<?xml version="1.0" encoding="UTF-8"?>
<svg xmlns="http://www.w3.org/2000/svg" viewBox="0 0 843.45 1035.59">
  <defs>
    <style>
      .cls-1 {
        opacity: .3;
      }

      .cls-2, .cls-3, .cls-4 {
        stroke-width: 0px;
      }

      .cls-3 {
        fill: #202020;
      }

      .cls-4 {
        fill: #9d3938;
      }
    </style>
  </defs>
  <g id="Layer_1" data-name="Layer 1">
    <rect class="cls-2" x="17.6" y="22.63" width="812.41" height="990"/>
  </g>
  <g id="Layer_2" data-name="Layer 2">
    <g>
      <path class="cls-4" d="m826.93,13.2c-1.46.94-1.15,2.81,1.5,3.36l7.07,1.45-1,4.62c-.16.74-.21,1.71-.08,2.89l4.69,3.7-1.02-6.59-1.69-10.9-7.98,1.23-1.5.23Z"/>
      <path class="cls-4" d="m829.17,56.2c2.27,6.13,6.27,13.2,10.58,9.23-4.51-6.07-2.63-7.54-7.99-14.08-.55-5.22,1.51-9.1,3.23-8.22-1.2-1.85,1.03-8.1-1.91-10.91-3.63,6.79-3.78,15.39-.78,24.37-1.03,1.93-2.26.06-3.13-.38Z"/>
      <path class="cls-4" d="m821.85,565.88l.56-3.28c-.31.9-.48,2.02-.56,3.28Z"/>
      <path class="cls-4" d="m819.28,881.67c-.11-2.4-.58-3.41-1-3.53.31,2.23.6,4.07,1,3.53Z"/>
      <path class="cls-4" d="m814.11,935.58c.15-1.16.22-2.13.32-3.18-.43,1.21-.67,2.43-.32,3.18Z"/>
      <path class="cls-4" d="m821.85,565.88l-1.47,8.44c1.53.59,1.14-4.32,1.47-8.44Z"/>
      <path class="cls-4" d="m840.49,126.48c-.23-1.77-.66-3.24-1.24-4.58.2,1.45.37,2.85.5,4.3.25.08.47.14.74.28Z"/>
      <path class="cls-4" d="m818.05,426.67v-2.56c-.54-.75-1.19-1.46-1.91-2.13l1.91,4.7Z"/>
      <path class="cls-4" d="m817.33,319.83c-.17,2.42,3.81,3.26,5.55,4.18-1.64-1.36-2.42-3.15-2.73-5.27-.76-.04-1.66.28-2.82,1.09Z"/>
      <path class="cls-4" d="m824.34,150.43l-.55-3.01c.17.78.33,2.1.55,3.01Z"/>
      <path class="cls-4" d="m817.19,503.14c-.59.18-1.11.56-1.42.97.5,0,.97-.38,1.42-.97Z"/>
      <path class="cls-4" d="m703.09,3.93c-.09.28.04.46,0,.71.62-.4.81-.68,0-.71Z"/>
      <path class="cls-4" d="m826.93,23.66l-1.72.21c-.18.75-.37,1.5-.37,2.23l2.09-2.45Z"/>
      <path class="cls-4" d="m805.7,993.21s.04.05.07.08c.34-.45.14-.37-.07-.08Z"/>
      <path class="cls-4" d="m37.91,892.17c-3.56,10.26-4.57-16.7-8.53-1.25,1.56-1.44,6.22,14.04,8.53,1.25Z"/>
      <path class="cls-4" d="m839.96,129.25c.05,1.44.08,2.91.04,4.38.13-1.99.12-3.34-.04-4.38Z"/>
      <path class="cls-4" d="m29.38,890.91h-.03l-.37,1.59c.17-.66.26-1.03.41-1.59Z"/>
      <path class="cls-4" d="m579.45,995.61c.47.7,1.37,1.23,2.32,1.74-.08-.41-.6-.91-2.32-1.74Z"/>
      <path class="cls-4" d="m748.82,1001.28l-4.19-.53c1.66.36,3.01.49,4.19.53Z"/>
      <path class="cls-4" d="m491.5,1001.23c-2.28-.3-3.05-.85-6.16-.32.29.2.57.34.95.48,1.13-.54,2.62-.8,5.22-.17Z"/>
      <path class="cls-4" d="m399.97,1001.25c.48.3,1.13.53,1.69.8.91-.07,1.97-.15,2.9-.21l-4.59-.59Z"/>
      <path class="cls-4" d="m424.91,5.84c2.01,1.12,3.25,2.36,4.23,3.58-1.41-2.83,12.04-3.84-4.23-3.58Z"/>
      <path class="cls-4" d="m838.25,126.53c1,.54,1.5,1.32,1.72,2.72-.05-1.05-.12-2.06-.21-3.05-.59-.27-1.15-.32-1.5.32Z"/>
      <path class="cls-4" d="m487.78,1032.66l-14.54-.59c4.07.39,9.35.59,14.54.59Z"/>
      <path class="cls-4" d="m5.21,275.82l-.48-3.34c-.09,1.29.02,2.47.48,3.34Z"/>
      <path class="cls-4" d="m430.08,1032.66c-2.6-1.4-5.35-2.22-8.19-2.75-.6.31-1.29.57-1.69,1.03l9.88,1.73Z"/>
      <path class="cls-4" d="m429.17,9.46s-.03-.04-.03-.04c0,0,0,.03.03.04Z"/>
      <path class="cls-4" d="m524.96,0c-13.86-.11-6.51,5.13-9.45,8.13-16.54,1.49-7.65-3.85-13.28-6.53-10.33,1.39-18.25,6.19-25.95,5.99-.57-.86-2.07-1.18-.32-2.26-10.92,4.16-32.41.2-45.13,5.43-.95-.46-1.42-.9-1.66-1.3,2.06,2.62,2.38,5.29,1.95,7.19-6.21.09-11.53,3.31-13.87-.11,3.81.1,4.12-1.28,5.91-2.35l-6.51,1.48c-5.86-4.92,8.89-1.7,8.89-5.34-12.69,1.6-27.49,5.67-37.21,4.28-2.03-4.81,22.74-1.62,9.77-5.9l15.05,1.84c-11.5-7.59,9.14.53-1.42-7.59-19.8-1.39-22.15,2.45-41.91,1.05-4.45,2.67,1.47,3.96-2.98,6.63-28.08,4.81-22.1-12.1-42.75-5.69-5.34,3.21-7.42,9.3-22.11,6.08l5.01-5.44c-19.17-.54-10.95,7.82-31.03,4.16,3.57-2.14,15.07-1.8,12.17-2.45-13.01-4.3-9.2,3.09-19.2,3.09l-2.07-4.82c-20.41.76-42.9,4.24-65.51,5.12,1.25-1.43,5.12-2.94-.16-4.41-28.51,2.41-60.87-.59-88.38-3.45l-10.51,4.16c-2.44-.05-4.53-1.88-1.89-2.69-10.72-1.58-.56,2.64-5.71,4.27-6.1.29-8.06-2.39-4.19-3.64-8.77,1.63-20.99,3.39-33.54,4.35-3.14.24-6.3.43-9.43.56-.78.03-1.56.06-2.34.08-1.05.02-2.1.04-3.15.06-2.4.03-4.77.04-7.11.04-9.39-.02-18.4-.36-27.23-1.11-.24,2.56-.52,4.78-.84,6.89l-1.24-7.54c-.42,6.17-.1,11.71.56,16.37.66,4.69,1.66,8.56,2.59,12.07.46,1.76.91,3.44,1.29,5.11.19.84.36,1.68.51,2.53.07.42.14.84.21,1.27.06.3.12.6.17.9.39,2.45.3,5.28-.67,8.88l-.74-2.76c-1.8,33.68,2.01,70.91-4.27,96.6,5.99,4.89-2.67,33.34,5.69,35.5-4.14,19.23-5.64,13.73-8.42,40.81-.38,7.23,5.22,10.78,6.09,19.73l-4.37.22,4.58,12.14-5.22,6.46,1.12,8.39c.26-3.34,1.96-7.1,3.22-6.59,1.98,13.1-3.04,31.94-5.28,32.27l3.7,31c-1.76-.69-2.36-5.88-3.48-9.98,4.46,16.55-4.6,3.01-.52,18.17.99-2.03,2.6,1.1,3.49,1.44-2.64,7.56-2.66,24.76-1.55,37.5l-3.01-2.44c-.77,22.99,1.44,48.47,1.39,74.28,1.4-9.26,6.62-7.13,7.12.44l-4.62,3.03c2.86,4.89,1.74-7.9,5.24,2.13-.53,9.64-5.25,6.48-6.75.95l1.6,11.72c-1.38.69-2.1-2.06-3.86-2.78,2.87,4.81-4.63,20.23.35,27.17l-1.37.66c-.04,25.8,1.55,37.5,1.78,58.51,3.99.41,3.1,8.63,6.32,14.89-1.27,15.44-4.4,32.58-4.07,51.19,1.98,13.08,3.37,3.82,5.74,9.7-3.63.96-3.29,19.55-5.9,9.91.59,22.33.73,28.53,3.68,56.77,1.48-3.06,2.13-6.51,3.37-4.73.6,5.12-1.52,11.66-3.27,10.93l-.38-1.35c5.45,31.7-10.58,73.17-3.01,98.42l-.37-1.42,3.94,26.18c-.63,12.04-2.73-7.22-4.98,1.69,6.06,28.24-.88,44.62,3.16,67.88-10.71,18,.75,63.88-6.08,88.18l2.52-1.4c2.47,6.28-1.44,7.6-2.02,12.22,1.96-.66,2.27-6.81,3.64-2.91l.17,3.28c.05,1.8.1,3.61.15,5.42.08,3.76.16,7.53.23,11.31.13,7.53.19,15.08.21,22.74,9.66-.02,19.27.04,29,.16,2.44.03,4.88.07,7.32.1l3.31.06,2.14.07c2.86.11,5.72.21,8.59.32,11.47.47,23.01,1.14,34.56,1.88,23.1,1.47,46.26,3.2,69.05,4.15,19.95.68,11.32-13.05,36.47-7.03l-7.14,4.68c40.26-5.61,82.32.19,121.72-4.57-2.35,1.08-2.42,2.48-6.26,2.47,8.32,3.4,30.78.17,30.92-2.61,6.14.31,1.42,2.51,5.2,3.92,8.35,2.01,20.96-4.34,25.39-.96.75.55-2.35,1.1-3.87,1.37,5.44-1.65,25.35.42,20.14-3.51,14.79,1.87,28.29-1.74,40.09.58,7.69-4.39,25.32,2.11,27.76-4.09-1.06,6.41,25.93,5.17,35.28,2.16-3.13,1.94,8.13,2.01,4.46,4.69,10.67-.09,20.45-1.28,18.59-4.57,19.66,7.67,39.52-6.17,50.59,3.66,31.7-3.45,61.04-5.78,89.56-7.28-1.03,6.39-31.52.64-30.3,7.35,27.06-2.63,42.66-8.12,69.49-6.58,6.95.88-3.94,2.78-6.29,3.87,27.03-2.63,52.26.58,76.31-2.9-.07.6-2.66,1.25-5.11,1.73,4.74-.21,11.02.94,10.49-1.97l-4.62.79c-7.57-4.22,18.82-8.81,19.67-11.04-8.05,8.33,23.76,2.09,10.98,12.62,3.12-.55,7.03-1.92,6.32-3.87,4.63.56,6.1,1.7,1.4,3.91,2.12-.2,3.89-.42,5.37-.65.74-.12,1.42-.24,2.04-.36.64-.14,1.23-.26,1.76-.38,3.35-.51,5.36-1.04,7.24-1.52,3.77-.96,6.92-1.72,18.32-1.69,1.01,1.41-3.36,1.95-5.08,3.61,4.78-1.16,9.04-2.32,13.84-3.18-.59-4.33-1.04-8.61-1.26-13.1-.22-4.5-.2-9.19.14-14.58.85,1.35,1.95-.73,1.93,5.25-.03-2.16-.08-4.28-.15-6.36-.04-1.04-.08-2.06-.13-3.08-.02-.51-.05-1.01-.07-1.52l-.04-.75-.02-.36-.02-.25c-.22-2.61-.52-5.16-.85-7.65-.66-5-1.48-9.82-2.2-14.71-1.44-9.78-2.5-19.84-1.18-32.08,6.11,7.22,2.01-8.33,7.31-9.63l-1.58-13.17-2.57,5.29c.09-11.54-3.76-21.73-2.03-31.65l2.18,8.57-1-21.62-2.01,12.24c-2.73-11.67-6.7,1.25-5.22-14.1.54,3.12.07-11.54,3.18-17.55,0,0,0,.04.01.04-1.69-5.71-3.46-11.58-2.15-20.11,1.69-2.22,5.85,1.78,6.98.34-4.42-5.63-1.22-27.02-5.94-34.15,1.11,2.38,3.88,2.5,4.45,1.72l-3.6-4.73c1.15-5.34,1.71-6.13,3.92-5.26.66-16.07-6.71,5.11-3.82-13.97.29,1.5.83.78,1.37,3.9,1.51-19.16-2.28-37.02-.51-54.63,5.32-5.2,1.3,15.38,5.8,9.44-.96-25.39-6.38-52.57-5.13-77.13l-.59,4.58c-7.52-3.41,3.72-18.3.17-30.72.55,3.04,4.17,3.99,3.33,3.17,1.21-16.83-1.85-34.4-4.21-59.89l1.93,3.16c1.72-9.91.99-26.11,1.87-36.82-1.93-3.18-1.61-9.3-4.42-5.58,11-33.02-5.9-62.99,3.27-92.29.02,3.5,1.69,8.35,1.7,5.56l-1.78-24.96c-3.28,1.97-1.98,3.27-4.53,8.51-1.94-3.16-3.45-10.2-3.45-16.39,2.17,11.22,5.26-.1,7.09-4.94-1,.81-2.11-.85-3.13-.44,5.83-13.04-6.59-2.19-2.66-19.98l1.72.94c-.88-6.66-3.15-12.8-2.66-19.98,3.79-2.98,1.77,7.09,4.89,7.55-.22-10.09-7.18-19.91-3.4-29.04,1.06,4.28,1.07,10.45,2.12,14.73,4.45-9.94,3.32-11.1,4.02-18.49l-.1.73,2.01-17.08-1.21,4.35c-9.88-12.63-1.8-25.71-8.27-42.72,6.12,16.53,3.54,2.73,7.83,4,1.19-4.34,2.53-10.95,3.74-9.07-3.46-8.04,2.73-13.42-2.34-24.76,1.38-.51.13-8.6,3.61-6.79-1.09-10.45-2.41,2.47-4.14,1.59-4.72-16.11,5.73-37.87-.75-61.04-2.67-19.98-7.33-23.68-9.65-42.22,2.21-6.26,5.03,5.13,5.03,5.13,2.04-10.1,1.66-17.69.08-27.21,1.21,1.93,2.23-.06,3.78-2.96-.36-7.63-5.03-5.11-3-15.18,1.54,1.73,4.01,3.94,5.55,7.63-1.27-9-3.85-17.88-5.1-27.2,2.41-2.47,3.65,5.62,5.23,8.91-1.09-10.47-2.19-27.13-6-30.36l-1.36,6.72c-.18-3.82,3.27-1.96,3.97.85,2.99,8.97-1.32,12.94-2.71,13.45l-.89-6.63c-8.11,6.81,1.3,26.65.83,40l-5.9-5.57,4.89,13.7c-1.54,2.91-4.83,4.91-5.71-1.69-2.91,9.57,2.1,8.48-1.15,16.7-.51.91-.79.5-1.02-.34l1.76,9.35c-1.24-1.83-4.16,1.56-3.31-4.19-3.4,16.79,4.42,27.08-.05,33.4l-.36-1.4c1.99,23.3,4.33,2.25,9.41,19.73l-10.68,11.76,4.33,2.29c-.16,2.4-.48,7.16-2.21,6.28,2.96,8.94,1.88-1.52,4.68,3.67-3.94,11.57,1.84,31.9-5.05,34.5,3.29,4.15,2.54-11.06,4.82,1.29-7.42,3.52,1.27,14.28-2.13,24.84-3.83-3.24-1.8-13.26-5.21-2.68,6.47,6.38-1.42,20.58-.18,29.49,5.15.42,2.15,19.38,3.86,34.34-1.73-.95-2.83,28.15-4.69,42.06l-.86-.41c5.2,2.69,4.22,17.05,5.3,27.5-3.11-.41-4.34-2.29-5.74-7.95l.02,9.82c1.67,2.32,2.55,5.38,3.14,11.76l-3.89-2.47c.21,13.08,4.58,26.33,1.98,43.16,3.63.95,10.11-13.38,12.53,4.41-1.96.66-5.32,1.32-6.12-3.34.26,1.52,1.63,5.44.79,8.51l-3.3-7.11c-1.45,7.66,2.76,4.01,2.45,10.13-2.8-.12-2,4.53-4.22,3.65-.27-1.56,1.16-5.34.06-7.69-.5,6.91-2.16,15.26-4.28,18.02,1.59-.6,3.77,0,4.13,5.06.2,13.08-3.37,4.48-4.81,12.1,1.94,3.17-.07,11.51,4.11,11.73-.02,3.83-1.97,4.53-3.1,6.01,1.84,6.77.53,31.61,4.98,23.98l.29-1.74c.09.32.09.71.18,1.11v-.05.05c4.16,22.18-2.37,46.08-.58,68.09l-1.4-.04c1.6,13.14.95,29.24,3.96,38.62,0,3.89-2.55,9.17-4.22,7.51,1.05,10.04,2.62,11.17.31,25.68-2.44-10.1-2.16,3.48-1.79-10.35-1.21,13.05-3.45,16,.38,30.01-3.58-4.77-4.52,9.82-3.44,16.03l2.56-9.14c.52,6.97.2,13.07-.1,19.27l-4.72-3.35c-5.74,26.7,9.76,48.16.16,68.49,3.3,7.06,2.32-14.5,6.18-8.19-.64,12.28-7.4,25.08-7.42,28.93-2.61,16.83,6.89,15.7,5.1,33.31,1.68-2.25,6.17-4.38,7.75,8.78-.62,12.29-7.06,15.11-8.4,7.35-.14-2.95.39-4.37.96-4.25-.61-3.97-1.33-9.18-3.16-4.32l1.68,1.59c-1.72,6.1-1.54,23.01-4.29,19.04,1.6,9.29,2.76,3.97,3.63-2.91-2.44,15.77-.07,24.63-1.71,40.86.93-2.58,2.9-4.96,2.89-2.39-2.08,23.8,3.19,10.48,3.93,26.61-2.56,9.16-6.12-3.28-3.97,12.95-1.74,9.91-4.46,2.1-5.83-1.84,1.62,7.4,1.09,14.31.08,20.42-.07.38-.13.76-.2,1.14l-.05.28s-.02.1-.03.13l-.03.03-.1.14c-.14.18-.28.34-.42.48-.29.29-.58.51-.85.67-.54.34-.98.45-1.13.65-.45-.64-.9-1.13-1.36-1.47.81.64.78,1.23.78,1.63,1.12.74,2.24,1.27,3.36,1.58-.59.8-.6,1.63-2,.21.07.1.15.2.23.28.71,1.1,2.12,2.47,3.66,3.93,1.45,1.46,3.08,3,1.75,4.46-1.16-.43-2.21-.53-3.29-.5-1.07.02-2.18.17-3.28.22-1.1.06-2.18.03-3-.29-1.47-.32-2.71-.94-3.22-2.05,1.2.09,2.24.16,3.14.2.43.04.75.05,1.04.04.57-.02.91-.13,1.08-.31.33-.36,0-.99-.3-1.69-.68-1.4-.98-3.08.49-3.44-.2.27-.56.39-.99.38-.22,0-.45-.05-.69-.12-.12-.04-.24-.09-.36-.14-.15-.06-.06-.12-.83-.19-.34-.25-.18-.48.22-.68.1-.05.22-.1.34-.14.07-.05.06-.09.09-.13.05-.08.09-.16.14-.22l-.13-.18-.06-.08s-.24-.05-.34-.08c-.52-.09-1.01-.18-1.48-.26-.94-.15-1.78-.26-2.55-.33-1.52-.13-2.71-.11-3.69.03-1.95.28-3.02,1.04-4.12,1.91-2.19,1.75-4.47,3.98-13.98,3.93,2.42-2.52-4.41-4.77-7.51-4.23,7.67.05,3.67,4.2-3.37,6.12-12.2-1.96-13.26,1.46-19.64,1.23l7.29.92c-2.47,2.52-8.57,2.19-17.07,2.98-.73-1.96,7.72-1.35,4.69-2.21-9.44,4.42-21.33-4.58-34.49-1.6-6.1-1.7-.59-4.73-5.95-5.88-14.75,3.26-15.98-3.45-31.48-.75,4.47,3.38,5.25,2.55-5.67,5.85l25.49-2.38-16.36,4.92c7.69.05,16.24-2.12,20.84-1.55-7.8,2.76-6.99,1.92-3.31,4.72-10.53-5.07-20.87,2.96-33.04-.47l.37-8.37c-18.29-3.73-32.51,4.29-56.26,2.19l7.63,1.45c-3.19,3.33-14.67.46-22.36,1.81.72-2.8-4.09-3.82-7.38-5.56.4,2.08-17.39-.19-19.55,5.4l-10.61-3.68c-19.18-1.51-21.89,7.97-40.33,7.02,5.56-3.04-2.83-5.02,9.53-7.2-6.16-.03-11.69-.54-11.79,1.4-3.6-1.75-17.07,3.77-22.73,1.11-2.6,1.23-3.44,4.16-10.36,3.93-.75-.57.03-1.38.03-1.38-.03,1.38-10.82,1.88-4.78,4.98-18.96-8.73-53.01.64-69.52-6.86-13.44.94-29.62,1.84-41.82,2.04.78-.84.04-1.39,2.35-1.1-16.83-2.6-10.34,8.03-29.49,5.13-9.78-4.52,10.17-2.45,4.07-4.16-2.65-9.21-23.11,1.26-35.99-4.12l3.12-.54c-9.85-3.13-24.03,3.49-40.12,2.83,0,0,.78-.81.09-1.39-11,4.7-31.84,6.25-47.32,7.55,4.82-3.6,7.03-1.91,4.09-5.57-6.94.52,2.03,5.88-11.82,6.9-4.5-1.97-14.5-3.7-15.82-7.6l13.06-.21c-6.69-5.06-16.91.17-23.8-.71l.88-2.21c-20.02.72-20.3,6.28-41.82,5.89l2.22,1.68c-11.76,5.51-9.86-3.1-21.59,1l-3.55-5.6c-7.76,1.35-27.18,5.41-41.1,6.46,7.88-4.15,24.17-6.27,34.24-8.73-7.69-.04-26.14.41-30.15,3.17,3.1-.54,7.01-1.91,10.07-1.05-9.44,4.4-21.85,6.56-37.18,6.46.92-3.66-3.34-5.16-9.8-5.87-.46-.07-.93-.15-1.42-.23-.46-.07-.94-.12-1.42-.17-.96-.1-1.95-.17-2.96-.23-2.01-.13-4.09-.22-5.85-.46.46-4.31,1.45-8.34,4.19-10-.13-.24-.24-.51-.35-.78l-.15-.42-.07-.22s-.02-.05-.03-.13l-.03-.32c-.18-1.69-.32-3.38-.44-5.08-.23-3.39-.34-6.78-.36-10.18-.04-6.81.28-13.67.71-20.67.85-14.01,2.12-28.57,1.8-44.37-8.44,11.2-.24-9.22-8.9-7.28-.56-7.36-.42-10.16.15-10.82l5.18-22.3c2.52-5.29,1.91,7,3.86,6.32.66-16.11,3.68-6.76,5.98-17.42-3.1,2.19-4.44-5.6-3.26-14.78l-4,12.93c-4.61-22.51,7.27-19.46,2.71-42.15l2.73,7.18c-1.61-11.65.06-42.96-6.91-54.37,1-2.06,3.37-4.78,4,.34,1.04-27.83-7.41-61.95-3.12-83.58l2.12,2.11c-.61-5.19-3.98-9.04-1.85-15.54.88.34,2.11,2.09,2.24-.31-.73-2.75-3.71-13.79-2.48-20.67l2.38,5.88c2.77-27.15-5.81-41.66-7.26-64.42,6.24.06,8.27-21.3,9.28-31.96l.88.37c.77-31.61-5.17-53.69-7.62-82.97,6.77-18.17,2.83-61.55,6.63-90.75-1.14,4.46-4.86-.73-5.49-5.92,1.26-6.85-4.33-18.94,1.39-17.86l-.11,2.44c5.61-5.16,4.12-19.25,4.27-30.25l-7.48-1.81c10.89-28.76-4-75.37,5.75-91.07-1.87-6.94-1.85-15.54-3.72-22.42l4.01.37c1.02-19.23,1.53-28.83.57-52.61l2.87,4.85c.26-13.41-11.57-16.93-11.81-29.3l5.99-3.72c-.09-23.39,5.17-47.07-.27-70.19.88.38,2.61,1.07,2.85,4.86.08-5.51,1.09-16.15,1.06-24.93,0-.55-.01-1.09-.02-1.62,0-.18,0-.13,0-.17v-.06s-.04-.13-.04-.13c-.04-.17-.1-.33-.19-.51-.17-.34-.44-.71-.83-1.14-.79-.8-2.09-2-4.14-2.73,1.17.57,1.85.54,2.18.21.33-.35.31-1.06.06-2.21.81-.32,1.69-1,3.04-1.78.67-.39,1.44-.8,2.28-1.19.42-.2.85-.39,1.29-.58.99-.19,1.94-.36,2.83-.53l-1.97,3.95c10.66-5.05,11-6.43,25.89-7.82,3.53.51,3.09,3.16-1.59,2.15,11.76,2.07,9.16-3.74,23.42-1.64l-5.31,2.52c12.1.3,11.14-1.05,17.8-3.99,7.61-1.58,22.95,1,24.74,4.57,1.63-2.18,8.26-5.09,15.39-4.06.96,1.35-1.63,2.19-2.94,2.6,20.23,2.69,30.08-4.59,43.99-.71.29,1.31,1.2,1.96,2.35,2.36-16.07-.1-29.01-.31-27.8-.6,0,3.64,12.98,4.28,2.65,9.31,10.42-2.74,28.24-8.71,40.89-7,.61.35,1.21.7,1.67,1.26l-1.31.41c2.92.36,5.54.02,8-.59,4.04.6,6.6,1.04,10.48,1.1,1.5,3.01,14.89,1.62,21.36,1.77-.54-3.98,7.94-3.34,0-6.63,1.03.29-1.22.48-5.53.64-.97.12-2.12.18-2.76.41.13-.11.28-.24.44-.35-4.25.11-9.79.2-16.09.27,5.11-2.02,10.46-3.73,17.61-1.52,3.32-2.56,6.98-5.19,9.04-6.43,8.86,5.56,25.93,8.56,28.31,11.99,19.77-2.24,46.56-1.47,58.99-8.96,5.62-.96,6.46,2.15,8.56,3.32-3.24.75-7.1.64-8.86,1.71,11.24-1.92,33.29-.75,35.97-5.98,14.16,2.36-7.96,4.81,11.5,3.96l-2.63,1.6c38.28,8.36,62.24-13.35,104.68-2.62-2.94-.66-4.41-.96-5.01-1.84,48.39,4.73,99.72-4.44,147.46,3.06,13.57,1.51,15.04-1.83,23.33-4.37l2.94,4.28,14.16-4.94c20.08-3.62,34.78,10.5,60.2,3.67l-3.28-2.88c9.13.54,28.92-1.7,27.4,1.62.93-.53,2.99-3,6.56-1.5l.28,2.24,22.43-3.84c17.39,1.62-2.72,8.89,22.65,9.33,9.43-.86,26.86-6.52,23.32-8.02-3.81-.11-9.73-1.4-10.01-3.64l8.63-1.17c1.56-6.6,8.2-13.36-12.98-17.97l-14.76,4.04-4.75-3.2,12.42-.2c-7.04-3.01-11.51-.35-16.51,1.48-1.18-1.7-3.26-2.89-6.18-3.53l-14.49,6.3c-1.76-2.58,6.5-5.12-3.23-6.55-6.79,2.93,6.51,5.79-4.73,7.71-7.06-3-5-5.44-13.28-2.88-1.16-1.7.59-2.78,3.87-3.53-7.38,2.04-19.52.86-23.33,4.37-7.36-3.7-24.9.96-24.17-5.28-2.32,1.5-12.99,4.9-19.76,5.16,12.38-7.48-25.36-.44-22.09-8.46-9.16,6.72-33.09,2.99-49.31,6.72.91-.53,2.69-1.62,4.12-1.27-9.13-.56-11.79-2.59-17.65-3.86-1.17,5.55-15.39,6.82-23.06,10.25-11.19-5.36,6.8-6.52,3.28-11.67.56,4.5-19.45,4.49-15.64,8.24-8.56-3.32-7.38-1.61-11.79-6.21-1.5,6.94-7.97,1.18-15.07,5.44-12.39-3.42-3.19-6.51-16.8-4.4C512.86,2.46,524.96,0,524.96,0ZM201.3,12.01v-.08c2.79-.09,5.16-.17,6.68-.23-1.39.06-3.32.15-6.68.3Zm-27.2.06c3.31.16,7.44.18,11.8.16.95,1.37-.08,2.79-2.81,2.72,1.49-.92-4.93-1.71-8.98-2.88Zm57.53,27.61c-4.3.56-5.75-.22-6.34-1.03,2.03-.07,4.41-.2,7.53-.48.13-.15.38-.32.51-.49-.41.76-.88,1.47-1.7,2Z"/>
      <path class="cls-4" d="m239.37,34.46c.62-.09.97-.26,1.77-.29-.88-.35-1.72-.65-2.57-.9-.52.42-1.06.84-1.52,1.25.78-.02,1.59-.04,2.32-.06Z"/>
      <path class="cls-4" d="m822.5,562.02l-.09.57c.16-.48.31-.91.57-1.2-.19.38-.32.38-.48.63Z"/>
      <polygon class="cls-4" points="3.24 245.52 4.25 245.48 3.37 243.11 3.24 245.52"/>
      <path class="cls-4" d="m836.18,412.22c.35-.29.71-.85,1.02-1.97-.26.09-.62.93-1.02,1.97Z"/>
      <path class="cls-4" d="m837.07,347.51l1.42-9.15c-.81,3.96-1.19,6.84-1.42,9.15Z"/>
      <path class="cls-4" d="m839.05,297.76c-.7-.63-1.22-.81-1.71-.97,0,.04,0,.07-.02.1l1.73.88Z"/>
      <path class="cls-4" d="m752.25,1027.93c-.67.02-1.33.08-1.92.18-4.5.77-1.44.47,1.92-.18Z"/>
      <path class="cls-4" d="m834.42,853.4c.72,2.5,1.43,4.96,1.88,7.57.3-4.19.38-7.45-1.88-7.57Z"/>
      <path class="cls-4" d="m489.38,1032.73s0-.03.03-.07c-.56.01-1.06,0-1.62,0l1.59.07Z"/>
      <path class="cls-4" d="m836.23,871.92c.8-4.19.62-7.69.07-10.95-.27,3.44-.67,7.48-.07,10.95Z"/>
      <path class="cls-4" d="m840.86,82.12l.16-2.4c-.26.04-.48-.1-.64-.29l.48,2.68Z"/>
      <path class="cls-4" d="m840.38,79.44l-.47-2.66c0,1.22.03,2.28.47,2.66Z"/>
      <path class="cls-4" d="m838.91,71.18l1,5.6c0-1.94.13-4.33-1-5.6Z"/>
      <path class="cls-4" d="m839.01,147.98l1.45.75c-.3-.41-.77-.68-1.45-.75Z"/>
      <path class="cls-4" d="m839.43,168c.33-4.77,3.08-11.98,2.18-18.64l-1.15-.62c2.15,3.13-3.46,14.73-1.03,19.26Z"/>
      <path class="cls-4" d="m821.57,251.54l1.16-16.77c-1.54,2.93-3.61,6.79-3.98-.84-4.59,21.14,3.44-4.36,2.82,17.61Z"/>
      <path class="cls-4" d="m819.34,303.54c-.72-9.01-2.24.11-3.1-.37,1.4,5.72,1.75,7.1,3.1.37Z"/>
      <path class="cls-4" d="m819.32,679.36l-3.63-.91c.52,6.95,1.4.07,3.63.91Z"/>
      <polygon class="cls-4" points="838.06 751.2 840.31 744.44 836.99 741.22 838.06 751.2"/>
      <polygon class="cls-4" points="812.24 793.63 811.72 790.6 813.03 802.19 812.24 793.63"/>
      <path class="cls-4" d="m416.25,997.73l2.1,4.46c4.69-.8,5.68-5.82-2.1-4.46Z"/>
      <path class="cls-4" d="m143.77,1002.28c-2.97-2.23-10.63-3.67-15.36-1.47,6.13.31,12.24,2.05,15.36,1.47Z"/>
      <polygon class="cls-4" points="39.05 317.79 40.55 323.27 39.3 312.94 39.05 317.79"/>
    </g>
    <g class="cls-1">
      <g>
        <path class="cls-3" d="m826.93,13.2c-1.46.94-1.15,2.81,1.5,3.36l7.07,1.45-1,4.62c-.16.74-.21,1.71-.08,2.89l4.69,3.7-1.02-6.59-1.69-10.9-7.98,1.23-1.5.23Z"/>
        <path class="cls-3" d="m829.17,56.2c2.27,6.13,6.27,13.2,10.58,9.23-4.51-6.07-2.63-7.54-7.99-14.08-.55-5.22,1.51-9.1,3.23-8.22-1.2-1.85,1.03-8.1-1.91-10.91-3.63,6.79-3.78,15.39-.78,24.37-1.03,1.93-2.26.06-3.13-.38Z"/>
        <path class="cls-3" d="m821.85,565.88l.56-3.28c-.31.9-.48,2.02-.56,3.28Z"/>
        <path class="cls-3" d="m819.28,881.67c-.11-2.4-.58-3.41-1-3.53.31,2.23.6,4.07,1,3.53Z"/>
        <path class="cls-3" d="m814.1,935.58c.15-1.16.22-2.13.32-3.18-.43,1.21-.67,2.43-.32,3.18Z"/>
        <path class="cls-3" d="m821.85,565.88l-1.47,8.44c1.53.59,1.14-4.32,1.47-8.44Z"/>
        <path class="cls-3" d="m840.49,126.48c-.23-1.77-.66-3.24-1.24-4.58.2,1.45.37,2.85.5,4.3.25.08.47.14.74.28Z"/>
        <path class="cls-3" d="m818.05,426.67v-2.56c-.54-.75-1.19-1.46-1.91-2.13l1.91,4.7Z"/>
        <path class="cls-3" d="m817.33,319.83c-.17,2.42,3.81,3.26,5.55,4.18-1.64-1.36-2.42-3.15-2.73-5.27-.76-.04-1.66.28-2.82,1.09Z"/>
        <path class="cls-3" d="m824.34,150.43l-.55-3.01c.17.78.33,2.1.55,3.01Z"/>
        <path class="cls-3" d="m817.19,503.14c-.59.18-1.11.56-1.42.97.5,0,.97-.38,1.42-.97Z"/>
        <path class="cls-3" d="m703.09,3.93c-.09.28.04.46,0,.71.62-.4.81-.68,0-.71Z"/>
        <path class="cls-3" d="m826.93,23.66l-1.72.21c-.18.75-.37,1.5-.37,2.23l2.09-2.45Z"/>
        <path class="cls-3" d="m805.69,993.21s.04.05.07.08c.34-.45.14-.37-.07-.08Z"/>
        <path class="cls-3" d="m37.91,892.17c-3.56,10.26-4.57-16.7-8.53-1.25,1.56-1.44,6.22,14.04,8.53,1.25Z"/>
        <path class="cls-3" d="m839.96,129.25c.05,1.44.08,2.91.04,4.38.13-1.99.12-3.34-.04-4.38Z"/>
        <path class="cls-3" d="m29.38,890.91h-.03l-.37,1.59c.17-.66.26-1.03.41-1.59Z"/>
        <path class="cls-3" d="m579.44,995.61c.47.7,1.37,1.23,2.32,1.74-.08-.41-.6-.91-2.32-1.74Z"/>
        <path class="cls-3" d="m748.82,1001.28l-4.19-.53c1.66.36,3.01.49,4.19.53Z"/>
        <path class="cls-3" d="m491.5,1001.23c-2.28-.3-3.05-.85-6.16-.32.29.2.57.34.95.48,1.13-.54,2.62-.8,5.22-.17Z"/>
        <path class="cls-3" d="m399.97,1001.25c.48.3,1.13.53,1.69.8.91-.07,1.97-.15,2.9-.21l-4.59-.59Z"/>
        <path class="cls-3" d="m424.91,5.84c2.01,1.12,3.25,2.36,4.23,3.58-1.41-2.83,12.04-3.84-4.23-3.58Z"/>
        <path class="cls-3" d="m838.25,126.53c1,.54,1.5,1.32,1.72,2.72-.05-1.05-.12-2.06-.21-3.05-.59-.27-1.15-.32-1.5.32Z"/>
        <path class="cls-3" d="m487.78,1032.66l-14.54-.59c4.07.39,9.35.59,14.54.59Z"/>
        <path class="cls-3" d="m5.21,275.82l-.48-3.34c-.09,1.29.02,2.47.48,3.34Z"/>
        <path class="cls-3" d="m430.08,1032.66c-2.6-1.4-5.35-2.22-8.19-2.75-.6.31-1.29.57-1.69,1.03l9.88,1.73Z"/>
        <path class="cls-3" d="m429.16,9.46s-.03-.04-.03-.04c0,0,0,.03.03.04Z"/>
        <path class="cls-3" d="m524.96,0c-13.86-.11-6.51,5.13-9.45,8.13-16.54,1.49-7.65-3.85-13.28-6.53-10.33,1.39-18.25,6.19-25.95,5.99-.57-.86-2.07-1.18-.32-2.26-10.92,4.16-32.41.2-45.13,5.43-.95-.46-1.42-.9-1.66-1.3,2.06,2.62,2.38,5.29,1.95,7.19-6.21.09-11.53,3.31-13.87-.11,3.81.1,4.12-1.28,5.91-2.35l-6.51,1.48c-5.86-4.92,8.89-1.7,8.89-5.34-12.69,1.6-27.49,5.67-37.21,4.28-2.03-4.81,22.74-1.62,9.77-5.9l15.05,1.84c-11.5-7.59,9.14.53-1.42-7.59-19.8-1.39-22.15,2.45-41.91,1.05-4.45,2.67,1.47,3.96-2.98,6.63-28.08,4.81-22.1-12.1-42.75-5.69-5.34,3.21-7.42,9.3-22.11,6.08l5.01-5.44c-19.17-.54-10.95,7.82-31.03,4.16,3.57-2.14,15.07-1.8,12.17-2.45-13.01-4.3-9.2,3.09-19.2,3.09l-2.07-4.82c-20.41.76-42.9,4.24-65.51,5.12,1.25-1.43,5.12-2.94-.16-4.41-28.51,2.41-60.87-.59-88.38-3.45l-10.51,4.16c-2.44-.05-4.53-1.88-1.89-2.69-10.72-1.58-.56,2.64-5.71,4.27-6.1.29-8.06-2.39-4.19-3.64-8.77,1.63-20.99,3.39-33.54,4.35-3.14.24-6.3.43-9.43.56-.78.03-1.56.06-2.34.08-1.05.02-2.1.04-3.15.06-2.4.03-4.77.04-7.11.04-9.39-.02-18.4-.36-27.23-1.11-.24,2.56-.52,4.78-.84,6.89l-1.24-7.54c-.42,6.17-.1,11.71.56,16.37.66,4.69,1.66,8.56,2.59,12.07.46,1.76.91,3.44,1.29,5.11.19.84.36,1.68.51,2.53.07.42.14.84.21,1.27.06.3.12.6.17.9.39,2.45.3,5.28-.67,8.88l-.74-2.76c-1.8,33.68,2.01,70.91-4.27,96.6,5.99,4.89-2.67,33.34,5.69,35.5-4.14,19.23-5.64,13.73-8.42,40.81-.38,7.23,5.22,10.78,6.09,19.73l-4.37.22,4.58,12.14-5.22,6.46,1.12,8.39c.26-3.34,1.96-7.1,3.22-6.59,1.98,13.1-3.04,31.94-5.28,32.27l3.7,31c-1.76-.69-2.36-5.88-3.48-9.98,4.46,16.55-4.6,3.01-.52,18.17.99-2.03,2.6,1.1,3.49,1.44-2.64,7.56-2.66,24.76-1.55,37.5l-3.01-2.44c-.77,22.99,1.44,48.47,1.39,74.28,1.4-9.26,6.62-7.13,7.12.44l-4.62,3.03c2.86,4.89,1.74-7.9,5.24,2.13-.53,9.64-5.25,6.48-6.75.95l1.6,11.72c-1.38.69-2.1-2.06-3.86-2.78,2.87,4.81-4.63,20.23.35,27.17l-1.37.66c-.04,25.8,1.55,37.5,1.78,58.51,3.99.41,3.1,8.63,6.32,14.89-1.27,15.44-4.4,32.58-4.07,51.19,1.98,13.08,3.37,3.82,5.74,9.7-3.63.96-3.29,19.55-5.9,9.91.59,22.33.73,28.53,3.68,56.77,1.48-3.06,2.13-6.51,3.37-4.73.6,5.12-1.52,11.66-3.27,10.93l-.38-1.35c5.45,31.7-10.58,73.17-3.01,98.42l-.37-1.42,3.94,26.18c-.63,12.04-2.73-7.22-4.98,1.69,6.06,28.24-.88,44.62,3.16,67.88-10.71,18,.75,63.88-6.08,88.18l2.52-1.4c2.47,6.28-1.44,7.6-2.02,12.22,1.96-.66,2.27-6.81,3.64-2.91l.17,3.28c.05,1.8.1,3.61.15,5.42.08,3.76.16,7.53.23,11.31.13,7.53.19,15.08.21,22.74,9.66-.02,19.27.04,29,.16,2.44.03,4.88.07,7.32.1l3.31.06,2.14.07c2.86.11,5.72.21,8.59.32,11.47.47,23.01,1.14,34.56,1.88,23.1,1.47,46.26,3.2,69.05,4.15,19.95.68,11.32-13.05,36.47-7.03l-7.14,4.68c40.26-5.61,82.32.19,121.72-4.57-2.35,1.08-2.42,2.48-6.26,2.47,8.32,3.4,30.78.17,30.92-2.61,6.14.31,1.42,2.51,5.2,3.92,8.35,2.01,20.96-4.34,25.39-.96.75.55-2.35,1.1-3.87,1.37,5.44-1.65,25.35.42,20.14-3.51,14.79,1.87,28.29-1.74,40.09.58,7.69-4.39,25.32,2.11,27.76-4.09-1.06,6.41,25.93,5.17,35.28,2.16-3.13,1.94,8.13,2.01,4.46,4.69,10.67-.09,20.45-1.28,18.59-4.57,19.66,7.67,39.52-6.17,50.59,3.66,31.7-3.45,61.04-5.78,89.56-7.28-1.03,6.39-31.52.64-30.3,7.35,27.06-2.63,42.66-8.12,69.49-6.58,6.95.88-3.94,2.78-6.29,3.87,27.03-2.63,52.26.58,76.31-2.9-.07.6-2.66,1.25-5.11,1.73,4.74-.21,11.02.94,10.49-1.97l-4.62.79c-7.57-4.22,18.82-8.81,19.67-11.04-8.05,8.33,23.76,2.09,10.98,12.62,3.12-.55,7.03-1.92,6.32-3.87,4.63.56,6.1,1.7,1.4,3.91,2.12-.2,3.89-.42,5.38-.65.74-.12,1.42-.24,2.04-.36.64-.14,1.23-.26,1.76-.38,3.35-.51,5.36-1.04,7.24-1.52,3.77-.96,6.92-1.72,18.32-1.69,1.01,1.41-3.36,1.95-5.08,3.61,4.78-1.16,9.04-2.32,13.84-3.18-.59-4.33-1.04-8.61-1.26-13.1-.22-4.5-.2-9.19.14-14.58.85,1.35,1.95-.73,1.93,5.25-.03-2.16-.08-4.28-.15-6.36-.04-1.04-.08-2.06-.13-3.08-.02-.51-.05-1.01-.07-1.52l-.04-.75-.02-.36-.02-.25c-.22-2.61-.52-5.16-.85-7.65-.66-5-1.48-9.82-2.2-14.71-1.44-9.78-2.5-19.84-1.18-32.08,6.11,7.22,2.01-8.33,7.3-9.63l-1.58-13.17-2.57,5.29c.09-11.54-3.76-21.73-2.03-31.65l2.18,8.57-1-21.62-2.01,12.24c-2.73-11.67-6.7,1.25-5.22-14.1.54,3.12.07-11.54,3.18-17.55,0,0,0,.04.01.04-1.69-5.71-3.46-11.58-2.15-20.11,1.69-2.22,5.85,1.78,6.98.34-4.42-5.63-1.22-27.02-5.94-34.15,1.11,2.38,3.88,2.5,4.45,1.72l-3.6-4.73c1.15-5.34,1.71-6.13,3.92-5.26.66-16.07-6.71,5.11-3.82-13.97.29,1.5.83.78,1.37,3.9,1.51-19.16-2.28-37.02-.51-54.63,5.32-5.2,1.3,15.38,5.8,9.44-.96-25.39-6.38-52.57-5.13-77.13l-.59,4.58c-7.52-3.41,3.72-18.3.17-30.72.55,3.04,4.17,3.99,3.33,3.17,1.21-16.83-1.85-34.4-4.21-59.89l1.93,3.16c1.72-9.91.99-26.11,1.87-36.82-1.93-3.18-1.61-9.3-4.42-5.58,11-33.02-5.9-62.99,3.27-92.29.02,3.5,1.69,8.35,1.7,5.56l-1.78-24.96c-3.28,1.97-1.98,3.27-4.53,8.51-1.94-3.16-3.45-10.2-3.45-16.39,2.17,11.22,5.26-.1,7.09-4.94-1,.81-2.11-.85-3.13-.44,5.83-13.04-6.59-2.19-2.66-19.98l1.72.94c-.88-6.66-3.15-12.8-2.66-19.98,3.79-2.98,1.77,7.09,4.89,7.55-.22-10.09-7.18-19.91-3.4-29.04,1.06,4.28,1.07,10.45,2.12,14.73,4.45-9.94,3.32-11.1,4.02-18.49l-.1.73,2.01-17.08-1.21,4.35c-9.88-12.63-1.8-25.71-8.27-42.72,6.12,16.53,3.54,2.73,7.83,4,1.19-4.34,2.53-10.95,3.74-9.07-3.46-8.04,2.73-13.42-2.34-24.76,1.38-.51.13-8.6,3.61-6.79-1.09-10.45-2.41,2.47-4.14,1.59-4.72-16.11,5.73-37.87-.75-61.04-2.67-19.98-7.33-23.68-9.65-42.22,2.21-6.26,5.03,5.13,5.03,5.13,2.04-10.1,1.66-17.69.08-27.21,1.21,1.93,2.23-.06,3.78-2.96-.36-7.63-5.03-5.11-3-15.18,1.54,1.73,4.01,3.94,5.55,7.63-1.27-9-3.85-17.88-5.1-27.2,2.41-2.47,3.65,5.62,5.23,8.91-1.09-10.47-2.19-27.13-6-30.36l-1.36,6.72c-.18-3.82,3.27-1.96,3.97.85,2.99,8.97-1.32,12.94-2.71,13.45l-.89-6.63c-8.11,6.81,1.3,26.65.83,40l-5.9-5.57,4.89,13.7c-1.54,2.91-4.83,4.91-5.71-1.69-2.91,9.57,2.1,8.48-1.15,16.7-.51.91-.79.5-1.02-.34l1.76,9.35c-1.24-1.83-4.16,1.56-3.31-4.19-3.4,16.79,4.42,27.08-.05,33.4l-.36-1.4c1.99,23.3,4.33,2.25,9.41,19.73l-10.68,11.76,4.33,2.29c-.16,2.4-.48,7.16-2.21,6.28,2.96,8.94,1.88-1.52,4.68,3.67-3.94,11.57,1.84,31.9-5.05,34.5,3.29,4.15,2.54-11.06,4.82,1.29-7.42,3.52,1.27,14.28-2.13,24.84-3.83-3.24-1.8-13.26-5.21-2.68,6.47,6.38-1.42,20.58-.18,29.49,5.15.42,2.15,19.38,3.86,34.34-1.73-.95-2.83,28.15-4.69,42.06l-.86-.41c5.2,2.69,4.22,17.05,5.3,27.5-3.11-.41-4.34-2.29-5.74-7.95l.02,9.82c1.67,2.32,2.55,5.38,3.14,11.76l-3.89-2.47c.21,13.08,4.58,26.33,1.98,43.16,3.63.95,10.11-13.38,12.53,4.41-1.96.66-5.32,1.32-6.12-3.34.26,1.52,1.63,5.44.79,8.51l-3.3-7.11c-1.45,7.66,2.76,4.01,2.45,10.13-2.8-.12-2,4.53-4.22,3.65-.27-1.56,1.16-5.34.06-7.69-.5,6.91-2.16,15.26-4.28,18.02,1.59-.6,3.77,0,4.13,5.06.2,13.08-3.37,4.48-4.81,12.1,1.94,3.17-.07,11.51,4.11,11.73-.02,3.83-1.97,4.53-3.1,6.01,1.84,6.77.53,31.61,4.98,23.98l.29-1.74c.09.32.09.71.18,1.11v-.05.05c4.16,22.18-2.37,46.08-.58,68.09l-1.4-.04c1.6,13.14.95,29.24,3.96,38.62,0,3.89-2.55,9.17-4.22,7.51,1.05,10.04,2.62,11.17.31,25.68-2.44-10.1-2.16,3.48-1.79-10.35-1.21,13.05-3.45,16,.38,30.01-3.58-4.77-4.52,9.82-3.44,16.03l2.56-9.14c.52,6.97.2,13.07-.1,19.27l-4.72-3.35c-5.74,26.7,9.76,48.16.16,68.49,3.3,7.06,2.32-14.5,6.18-8.19-.64,12.28-7.4,25.08-7.42,28.93-2.61,16.83,6.89,15.7,5.1,33.31,1.68-2.25,6.17-4.38,7.75,8.78-.62,12.29-7.06,15.11-8.4,7.35-.14-2.95.39-4.37.96-4.25-.61-3.97-1.33-9.18-3.16-4.32l1.68,1.59c-1.72,6.1-1.54,23.01-4.29,19.04,1.6,9.29,2.76,3.97,3.63-2.91-2.44,15.77-.07,24.63-1.71,40.86.93-2.58,2.9-4.96,2.89-2.39-2.08,23.8,3.19,10.48,3.93,26.61-2.56,9.16-6.12-3.28-3.97,12.95-1.74,9.91-4.46,2.1-5.83-1.84,1.62,7.4,1.09,14.31.08,20.42-.07.38-.13.76-.2,1.14l-.05.28s-.02.1-.03.13l-.03.03-.1.14c-.14.18-.28.34-.42.48-.29.29-.58.51-.85.67-.54.34-.98.45-1.13.65-.45-.64-.9-1.13-1.36-1.47.81.64.78,1.23.78,1.63,1.12.74,2.24,1.27,3.36,1.58-.59.8-.6,1.63-2,.21.07.1.15.2.23.28.71,1.1,2.12,2.47,3.66,3.93,1.45,1.46,3.08,3,1.75,4.46-1.16-.43-2.21-.53-3.29-.5-1.07.02-2.18.17-3.28.22-1.1.06-2.18.03-3-.29-1.47-.32-2.71-.94-3.22-2.05,1.2.09,2.24.16,3.14.2.43.04.75.05,1.04.04.57-.02.91-.13,1.08-.31.33-.36,0-.99-.3-1.69-.68-1.4-.98-3.08.49-3.44-.2.27-.56.39-.99.38-.22,0-.45-.05-.69-.12-.12-.04-.24-.09-.36-.14-.15-.06-.06-.12-.83-.19-.34-.25-.18-.48.22-.68.1-.05.22-.1.34-.14.07-.05.06-.09.09-.13.05-.08.09-.16.14-.22l-.13-.18-.06-.08s-.24-.05-.34-.08c-.52-.09-1.01-.18-1.48-.26-.94-.15-1.78-.26-2.55-.33-1.52-.13-2.71-.11-3.69.03-1.95.28-3.02,1.04-4.12,1.91-2.19,1.75-4.47,3.98-13.98,3.93,2.42-2.52-4.41-4.77-7.51-4.23,7.67.05,3.67,4.2-3.37,6.12-12.2-1.96-13.26,1.46-19.64,1.23l7.29.92c-2.47,2.52-8.57,2.19-17.07,2.98-.73-1.96,7.72-1.35,4.69-2.21-9.44,4.42-21.33-4.58-34.49-1.6-6.1-1.7-.59-4.73-5.95-5.88-14.75,3.26-15.98-3.45-31.48-.75,4.47,3.38,5.25,2.55-5.67,5.85l25.49-2.38-16.36,4.92c7.69.05,16.24-2.12,20.84-1.55-7.8,2.76-6.99,1.92-3.31,4.72-10.53-5.07-20.87,2.96-33.04-.47l.37-8.37c-18.29-3.73-32.51,4.29-56.26,2.19l7.63,1.45c-3.19,3.33-14.67.46-22.36,1.81.72-2.8-4.09-3.82-7.38-5.56.4,2.08-17.39-.19-19.55,5.4l-10.61-3.68c-19.18-1.51-21.89,7.97-40.33,7.02,5.56-3.04-2.83-5.02,9.53-7.2-6.16-.03-11.69-.54-11.79,1.4-3.6-1.75-17.07,3.77-22.73,1.11-2.6,1.23-3.44,4.16-10.36,3.93-.75-.57.03-1.38.03-1.38-.03,1.38-10.82,1.88-4.78,4.98-18.96-8.73-53.01.64-69.52-6.86-13.44.94-29.62,1.84-41.82,2.04.78-.84.04-1.39,2.35-1.1-16.83-2.6-10.34,8.03-29.49,5.13-9.78-4.52,10.17-2.45,4.07-4.16-2.65-9.21-23.11,1.26-35.99-4.12l3.12-.54c-9.85-3.13-24.03,3.49-40.12,2.83,0,0,.78-.81.09-1.39-11,4.7-31.84,6.25-47.32,7.55,4.82-3.6,7.03-1.91,4.09-5.57-6.94.52,2.03,5.88-11.82,6.9-4.5-1.97-14.5-3.7-15.82-7.6l13.06-.21c-6.69-5.06-16.91.17-23.8-.71l.88-2.21c-20.02.72-20.3,6.28-41.82,5.89l2.22,1.68c-11.76,5.51-9.86-3.1-21.59,1l-3.55-5.6c-7.76,1.35-27.18,5.41-41.1,6.46,7.88-4.15,24.17-6.27,34.24-8.73-7.69-.04-26.14.41-30.15,3.17,3.1-.54,7.01-1.91,10.07-1.05-9.44,4.4-21.85,6.56-37.18,6.46.92-3.66-3.34-5.16-9.8-5.87-.46-.07-.93-.15-1.42-.23-.46-.07-.94-.12-1.42-.17-.96-.1-1.95-.17-2.96-.23-2.01-.13-4.09-.22-5.85-.46.46-4.31,1.45-8.34,4.19-10-.13-.24-.24-.51-.35-.78l-.15-.42-.07-.22s-.02-.05-.03-.13l-.03-.32c-.18-1.69-.32-3.38-.44-5.08-.23-3.39-.34-6.78-.36-10.18-.04-6.81.28-13.67.71-20.67.85-14.01,2.12-28.57,1.8-44.37-8.44,11.2-.24-9.22-8.9-7.28-.56-7.36-.42-10.16.15-10.82l5.18-22.3c2.52-5.29,1.91,7,3.86,6.32.66-16.11,3.68-6.76,5.98-17.42-3.1,2.19-4.44-5.6-3.26-14.78l-4,12.93c-4.61-22.51,7.27-19.46,2.71-42.15l2.73,7.18c-1.61-11.65.06-42.96-6.91-54.37,1-2.06,3.37-4.78,4,.34,1.04-27.83-7.41-61.95-3.12-83.58l2.12,2.11c-.61-5.19-3.98-9.04-1.85-15.54.88.34,2.11,2.09,2.24-.31-.73-2.75-3.71-13.79-2.48-20.67l2.38,5.88c2.78-27.15-5.81-41.66-7.26-64.42,6.24.06,8.27-21.3,9.28-31.96l.88.37c.77-31.61-5.17-53.69-7.62-82.97,6.77-18.17,2.83-61.55,6.63-90.75-1.14,4.46-4.86-.73-5.49-5.92,1.26-6.85-4.33-18.94,1.39-17.86l-.11,2.44c5.61-5.16,4.12-19.25,4.27-30.25l-7.48-1.81c10.89-28.76-4-75.37,5.75-91.07-1.87-6.94-1.85-15.54-3.72-22.42l4.01.37c1.02-19.23,1.53-28.83.57-52.61l2.87,4.85c.26-13.41-11.57-16.93-11.81-29.3l5.99-3.72c-.09-23.39,5.17-47.07-.27-70.19.88.38,2.61,1.07,2.85,4.86.08-5.51,1.09-16.15,1.06-24.93,0-.55-.01-1.09-.02-1.62,0-.18,0-.13,0-.17v-.06s-.04-.13-.04-.13c-.04-.17-.1-.33-.19-.51-.17-.34-.44-.71-.83-1.14-.79-.8-2.09-2-4.14-2.73,1.17.57,1.85.54,2.18.21.33-.35.31-1.06.06-2.21.81-.32,1.69-1,3.04-1.78.67-.39,1.44-.8,2.28-1.19.42-.2.85-.39,1.29-.58.99-.19,1.94-.36,2.83-.53l-1.97,3.95c10.66-5.05,11-6.43,25.89-7.82,3.53.51,3.09,3.16-1.59,2.15,11.76,2.07,9.16-3.74,23.42-1.64l-5.31,2.52c12.1.3,11.14-1.05,17.8-3.99,7.61-1.58,22.95,1,24.74,4.57,1.63-2.18,8.26-5.09,15.39-4.06.96,1.35-1.63,2.19-2.94,2.6,20.23,2.69,30.08-4.59,43.99-.71.29,1.31,1.2,1.96,2.35,2.36-16.07-.1-29.01-.31-27.8-.6,0,3.64,12.98,4.28,2.65,9.31,10.42-2.74,28.24-8.71,40.89-7,.61.35,1.21.7,1.67,1.26l-1.31.41c2.92.36,5.54.02,8-.59,4.04.6,6.6,1.04,10.48,1.1,1.5,3.01,14.89,1.62,21.36,1.77-.54-3.98,7.94-3.34,0-6.63,1.03.29-1.22.48-5.53.64-.97.12-2.12.18-2.76.41.13-.11.28-.24.44-.35-4.25.11-9.79.2-16.09.27,5.11-2.02,10.46-3.73,17.61-1.52,3.32-2.56,6.98-5.19,9.04-6.43,8.86,5.56,25.93,8.56,28.31,11.99,19.76-2.24,46.56-1.47,58.99-8.96,5.62-.96,6.46,2.15,8.56,3.32-3.24.75-7.1.64-8.86,1.71,11.24-1.92,33.29-.75,35.97-5.98,14.16,2.36-7.96,4.81,11.5,3.96l-2.63,1.6c38.28,8.36,62.24-13.35,104.68-2.62-2.94-.66-4.41-.96-5.01-1.84,48.39,4.73,99.72-4.44,147.46,3.06,13.57,1.51,15.04-1.83,23.33-4.37l2.94,4.28,14.16-4.94c20.08-3.62,34.78,10.5,60.2,3.67l-3.28-2.88c9.13.54,28.92-1.7,27.4,1.62.93-.53,2.99-3,6.56-1.5l.28,2.24,22.43-3.84c17.39,1.62-2.72,8.89,22.65,9.33,9.43-.86,26.86-6.52,23.32-8.02-3.81-.11-9.73-1.4-10.01-3.64l8.63-1.17c1.56-6.6,8.2-13.36-12.98-17.97l-14.76,4.04-4.75-3.2,12.42-.2c-7.04-3.01-11.51-.35-16.51,1.48-1.18-1.7-3.26-2.89-6.18-3.53l-14.49,6.3c-1.76-2.58,6.5-5.12-3.23-6.55-6.79,2.93,6.51,5.79-4.73,7.71-7.06-3-5-5.44-13.28-2.88-1.16-1.7.59-2.78,3.87-3.53-7.38,2.04-19.52.86-23.33,4.37-7.36-3.7-24.9.96-24.17-5.28-2.32,1.5-12.99,4.9-19.77,5.16,12.38-7.48-25.36-.44-22.09-8.46-9.16,6.72-33.09,2.99-49.31,6.72.91-.53,2.69-1.62,4.12-1.27-9.13-.56-11.79-2.59-17.65-3.86-1.17,5.55-15.39,6.82-23.06,10.25-11.19-5.36,6.8-6.52,3.28-11.67.56,4.5-19.45,4.49-15.64,8.24-8.56-3.32-7.38-1.61-11.79-6.21-1.5,6.94-7.97,1.18-15.07,5.44-12.39-3.42-3.19-6.51-16.8-4.4C512.85,2.46,524.96,0,524.96,0ZM201.3,12.01v-.08c2.79-.09,5.16-.17,6.68-.23-1.39.06-3.32.15-6.68.3Zm-27.2.06c3.31.16,7.44.18,11.8.16.95,1.37-.08,2.79-2.81,2.72,1.49-.92-4.93-1.71-8.98-2.88Zm57.53,27.61c-4.3.56-5.75-.22-6.34-1.03,2.03-.07,4.41-.2,7.53-.48.13-.15.38-.32.51-.49-.41.76-.88,1.47-1.7,2Z"/>
        <path class="cls-3" d="m239.37,34.46c.62-.09.97-.26,1.77-.29-.88-.35-1.72-.65-2.57-.9-.52.42-1.06.84-1.52,1.25.78-.02,1.59-.04,2.32-.06Z"/>
        <path class="cls-3" d="m822.5,562.02l-.09.57c.16-.48.31-.91.57-1.2-.19.38-.32.38-.48.63Z"/>
        <polygon class="cls-3" points="3.24 245.52 4.25 245.48 3.37 243.11 3.24 245.52"/>
        <path class="cls-3" d="m836.17,412.22c.35-.29.71-.85,1.02-1.97-.26.09-.62.93-1.02,1.97Z"/>
        <path class="cls-3" d="m837.07,347.51l1.42-9.15c-.81,3.96-1.19,6.84-1.42,9.15Z"/>
        <path class="cls-3" d="m839.04,297.76c-.7-.63-1.22-.81-1.71-.97,0,.04,0,.07-.02.1l1.73.88Z"/>
        <path class="cls-3" d="m752.24,1027.93c-.67.02-1.33.08-1.92.18-4.5.77-1.44.47,1.92-.18Z"/>
        <path class="cls-3" d="m834.41,853.4c.72,2.5,1.43,4.96,1.88,7.57.3-4.19.38-7.45-1.88-7.57Z"/>
        <path class="cls-3" d="m489.37,1032.73s0-.03.03-.07c-.56.01-1.06,0-1.62,0l1.59.07Z"/>
        <path class="cls-3" d="m836.23,871.92c.8-4.19.62-7.69.07-10.95-.27,3.44-.67,7.48-.07,10.95Z"/>
        <path class="cls-3" d="m840.86,82.12l.16-2.4c-.26.04-.48-.1-.64-.29l.48,2.68Z"/>
        <path class="cls-3" d="m840.38,79.44l-.47-2.66c0,1.22.03,2.28.47,2.66Z"/>
        <path class="cls-3" d="m838.9,71.18l1,5.6c.01-1.94.13-4.33-1-5.6Z"/>
        <path class="cls-3" d="m839.01,147.98l1.45.75c-.3-.41-.77-.68-1.45-.75Z"/>
        <path class="cls-3" d="m839.43,168c.33-4.77,3.08-11.98,2.18-18.64l-1.15-.62c2.15,3.13-3.46,14.73-1.03,19.26Z"/>
        <path class="cls-3" d="m821.57,251.54l1.16-16.77c-1.54,2.93-3.61,6.79-3.98-.84-4.59,21.14,3.44-4.36,2.82,17.61Z"/>
        <path class="cls-3" d="m819.34,303.54c-.72-9.01-2.24.11-3.1-.37,1.4,5.72,1.75,7.1,3.1.37Z"/>
        <path class="cls-3" d="m819.32,679.36l-3.63-.91c.52,6.95,1.4.07,3.63.91Z"/>
        <polygon class="cls-3" points="838.06 751.2 840.31 744.44 836.99 741.22 838.06 751.2"/>
        <polygon class="cls-3" points="812.23 793.63 811.71 790.6 813.03 802.19 812.23 793.63"/>
        <path class="cls-3" d="m416.25,997.73l2.1,4.46c4.7-.8,5.68-5.82-2.1-4.46Z"/>
        <path class="cls-3" d="m143.77,1002.28c-2.97-2.23-10.63-3.67-15.36-1.47,6.13.31,12.24,2.05,15.36,1.47Z"/>
        <polygon class="cls-3" points="39.05 317.79 40.55 323.27 39.3 312.94 39.05 317.79"/>
      </g>
    </g>
  </g>
</svg>